<svg version="1.0" xmlns="http://www.w3.org/2000/svg"
 width="120.000000pt" height="120.000000pt" viewBox="0 0 120.000000 120.000000"
 preserveAspectRatio="xMidYMid meet">

<g transform="translate(0.000000,120.000000) scale(0.100000,-0.100000)"
fill="#000000" stroke="none">
<path d="M469 1179 c-267 -63 -459 -301 -460 -569 -1 -138 31 -240 107 -347
182 -255 526 -327 793 -165 124 75 224 203 267 339 40 131 25 292 -41 429 -71
147 -241 280 -403 313 -61 13 -210 13 -263 0z m-204 -574 l0 -90 -52 -1 c-66
-2 -87 13 -87 59 0 44 19 67 55 67 24 0 29 4 29 23 0 30 9 39 34 35 19 -3 21
-10 21 -93z m445 66 c0 -13 -8 -21 -22 -23 -21 -3 -23 -9 -26 -70 -3 -68 -3
-68 -32 -68 l-30 0 0 65 c0 61 -2 66 -25 75 -16 6 -23 14 -19 25 5 12 23 15
80 15 66 0 74 -2 74 -19z m320 0 c0 -10 -9 -21 -19 -24 -17 -4 -20 -15 -23
-68 -3 -61 -4 -64 -30 -67 -27 -3 -27 -3 -30 65 -3 62 -5 68 -25 71 -15 2 -23
10 -23 23 0 17 8 19 75 19 67 0 75 -2 75 -19z m-510 -11 c0 -11 7 -20 15 -20
8 0 15 -7 15 -15 0 -9 -7 -18 -15 -21 -20 -8 -19 -41 2 -52 20 -11 11 -42 -12
-42 -35 0 -55 20 -55 55 0 19 -4 35 -10 35 -5 0 -10 9 -10 20 0 11 5 20 10 20
6 0 10 6 10 14 0 14 14 24 38 25 6 1 12 -8 12 -19z m-106 -36 c26 -25 20 -81
-10 -100 -36 -24 -95 -9 -108 27 -12 34 -1 76 22 82 38 10 81 6 96 -9z m375
-1 c9 -17 10 -17 16 0 5 11 18 17 37 17 l29 0 -18 -30 c-16 -28 -16 -32 0 -59
23 -39 22 -41 -12 -41 -22 0 -32 6 -37 23 l-7 22 -10 -22 c-7 -16 -19 -23 -39
-23 -33 0 -35 9 -9 41 19 24 19 24 -1 57 l-20 32 31 0 c18 0 34 -7 40 -17z
m319 -75 c8 -8 9 -15 1 -25 -15 -17 -34 -17 -49 2 -23 28 21 50 48 23z"/>
<path d="M180 575 c0 -16 6 -25 15 -25 9 0 15 9 15 25 0 16 -6 25 -15 25 -9 0
-15 -9 -15 -25z"/>
<path d="M347 594 c-14 -15 -6 -34 14 -34 14 0 19 5 17 17 -3 18 -20 27 -31
17z"/>
</g>
</svg>
